<?xml version="1.0" encoding="utf-8"?>
<svg width="26px" height="19px" viewBox="0 0 26 19" version="1.1" xmlns="http://www.w3.org/2000/svg" xmlns:xlink="http://www.w3.org/1999/xlink">
    <g id="Page-1" stroke="none" stroke-width="1" fill="none" fill-rule="evenodd">
        <g id="Contact_us" transform="translate(-1050.000000, -417.000000)" fill="#3A00FF" fill-rule="nonzero">
            <g id="Billing" transform="translate(1050.000000, 412.000000)">
                <g id="money-bill-wave-solid" transform="translate(0.000000, 5.000000)">
                    <path d="M25.1952574,0.952544643 C23.6218721,0.262522321 22.0472699,0 20.4734789,0 C15.4775039,-0.000424107143 10.4819345,2.64388393 5.48595944,2.64388393 C4.23301092,2.64388393 2.98087363,2.47763393 1.72792512,2.06200893 C1.58717629,2.01535714 1.44602184,1.99330357 1.30811232,1.99330357 C0.610046802,1.99330357 0,2.55821429 0,3.34238839 L0,16.7976116 C0,17.3332589 0.29326053,17.8409152 0.764180967,18.0470312 C2.3375663,18.7374777 3.91216849,19 5.48595944,19 C10.4819345,19 15.4779095,16.355692 20.4738846,16.355692 C21.7268331,16.355692 22.9789704,16.521942 24.2319189,16.937567 C24.3726677,16.9842188 24.5138222,17.0062723 24.6517317,17.0062723 C25.3497972,17.0062723 25.959844,16.4413616 25.959844,15.6571875 L25.959844,2.20238839 C25.9594384,1.66631696 25.6661778,1.15908482 25.1952574,0.952544643 Z M1.94695788,4.25040179 C2.76305772,4.46415179 3.61485179,4.57145089 4.49098284,4.62912946 C4.2524805,5.87558036 3.20436817,6.81497768 1.94695788,6.81497768 L1.94695788,4.25040179 Z M1.94695788,16.3374554 L1.94695788,14.3110714 C3.34106084,14.3110714 4.46907956,15.4676116 4.53113885,16.9150893 C3.61728549,16.8383259 2.76305772,16.6474777 1.94695788,16.3374554 Z M12.9797192,13.5714286 C11.1873011,13.5714286 9.73478939,11.748192 9.73478939,9.5 C9.73478939,7.25138393 11.1877067,5.42857143 12.9797192,5.42857143 C14.7717317,5.42857143 16.224649,7.25138393 16.224649,9.5 C16.224649,11.7490402 14.7713261,13.5714286 12.9797192,13.5714286 Z M24.0124805,14.7495982 C23.3018409,14.5634152 22.564025,14.4590848 21.8091732,14.3916518 C22.0472699,13.2855804 22.9246178,12.4458482 24.0124805,12.3016518 L24.0124805,14.7495982 Z M24.0124805,4.73600446 C22.759532,4.57017857 21.7872699,3.47640625 21.7487363,2.125625 C22.5413105,2.21765625 23.2937285,2.38984375 24.0124805,2.66254464 L24.0124805,4.73600446 Z" id="Shape"></path>
                </g>
            </g>
        </g>
    </g>
</svg>