<?xml version="1.0" encoding="utf-8"?>
<svg width="22px" height="21px" viewBox="0 0 22 21" version="1.1" xmlns="http://www.w3.org/2000/svg" xmlns:xlink="http://www.w3.org/1999/xlink">
    <g id="Page-1" stroke="none" stroke-width="1" fill="none" fill-rule="evenodd">
        <g id="Contact_us" transform="translate(-734.000000, -478.000000)" fill-rule="nonzero">
            <g id="Careers" transform="translate(734.000000, 475.000000)">
                <g id="noun_job_2043818" transform="translate(0.000000, 3.000000)">
                    <g id="Group">
                        <g id="Group-6" transform="translate(0.114583, 0.046667)">
                            <path d="M13.3833333,12.4833333 L13.3833333,12.67 C13.3833333,14.07 12.2604167,15.2133333 10.8854167,15.2133333 C9.51041667,15.2133333 8.3875,14.07 8.3875,12.67 L8.3875,12.4833333 L0.458333333,10.92 C0.297916667,10.8966667 0.1375,10.85 -3.90798505e-14,10.7566667 L-3.90798505e-14,17.8033333 C-3.90798505e-14,19.53 1.375,20.93 3.07083333,20.93 L18.7229167,20.93 C20.41875,20.93 21.79375,19.53 21.79375,17.8033333 L21.79375,10.7566667 C21.65625,10.8266667 21.4958333,10.8733333 21.3354167,10.92 L13.3833333,12.4833333 Z" id="Path" fill="#3A00FF"></path>
                            <path d="M18.7458333,4.43333333 L15.95,4.43333333 L15.95,3.26666667 C15.95,1.47 14.50625,-9.05941988e-14 12.7416667,-9.05941988e-14 L9.02916667,-9.05941988e-14 C7.26458333,-9.05941988e-14 5.82083333,1.47 5.82083333,3.26666667 L5.82083333,4.43333333 L3.025,4.43333333 C1.35208333,4.43333333 -3.55271368e-14,5.81 -3.55271368e-14,7.51333333 L-3.55271368e-14,8.82 C-3.55271368e-14,9.24 0.297916667,9.59 0.6875,9.68333333 L8.3875,11.2 C8.41041667,9.82333333 9.51041667,8.72666667 10.8854167,8.72666667 C12.2375,8.72666667 13.3604167,9.82333333 13.3833333,11.2 L21.0604167,9.68333333 C21.4729167,9.59 21.7708333,9.24 21.7708333,8.82 L21.7708333,7.49 C21.7708333,5.81 20.41875,4.43333333 18.7458333,4.43333333 Z M8.18125,3.24333333 C8.18125,2.77666667 8.57083333,2.40333333 9.00625,2.40333333 L12.7416667,2.40333333 C13.2,2.40333333 13.5666667,2.8 13.5666667,3.24333333 L13.5666667,4.41 L8.18125,4.41 L8.18125,3.24333333 Z" id="Shape" fill="#3A00FF"></path>
                            <path d="M12.1458333,12.67 L12.1458333,11.27 C12.1458333,10.57 11.5729167,9.98666667 10.8854167,9.98666667 C10.1979167,9.98666667 9.625,10.57 9.625,11.27 L9.625,12.67 C9.625,13.37 10.1979167,13.9533333 10.8854167,13.9533333 C11.5729167,13.9533333 12.1458333,13.37 12.1458333,12.67 Z" id="Path" fill="#3FAB65"></path>
                        </g>
                    </g>
                </g>
            </g>
        </g>
    </g>
</svg>