<?xml version="1.0" encoding="utf-8"?>
<svg width="18px" height="13px" viewBox="0 0 18 13" version="1.1" xmlns="http://www.w3.org/2000/svg" xmlns:xlink="http://www.w3.org/1999/xlink">
    <g id="Page-1" stroke="none" stroke-width="1" fill="none" fill-rule="evenodd">
        <g id="Contact_us" transform="translate(-483.000000, -336.000000)" fill="#9CA8B7" fill-rule="nonzero">
            <g id="Contact_Us" transform="translate(164.000000, 141.000000)">
                <g id="Input" transform="translate(284.000000, 171.000000)">
                    <g id="noun_Email_2738540" transform="translate(35.000000, 24.000000)">
                        <path d="M9.33440625,8.55606818 C9.23146875,8.61959091 9.1153125,8.65238636 9,8.65238636 C8.884125,8.65238636 8.76796875,8.61959091 8.66503125,8.55606818 L0.28125,3.35547727 C0.1569375,3.27836364 0,3.37231818 0,3.52418182 L0,11.4231591 C0,12.2436364 0.63365625,12.9095909 1.41496875,12.9095909 L16.5844687,12.9095909 C17.3660625,12.9095909 18,12.2436364 18,11.4231591 L18,3.52418182 C18,3.37231818 17.8425,3.27836364 17.7184687,3.35547727 L9.33440625,8.55606818 L9.33440625,8.55606818 Z M9.3718125,6.92604545 L17.9029687,1.63415909 C17.9637187,1.59575 18.0005625,1.52572727 17.994375,1.45186364 C17.9333437,0.690772727 17.3241562,0.0904090909 16.5844687,0.0904090909 L1.4146875,0.0904090909 C0.67471875,0.0904090909 0.0658124999,0.690772727 0.00478124989,1.45186364 C-0.00112500011,1.52572727 0.0354374999,1.59575 0.0961874999,1.63415909 L8.62734375,6.92604545 C8.857125,7.06875 9.14203125,7.06875 9.3718125,6.92604545 Z" id="Shape"></path>
                    </g>
                </g>
            </g>
        </g>
    </g>
</svg>