<?xml version="1.0" encoding="utf-8"?>
<svg width="18px" height="23px" viewBox="0 0 18 23" version="1.1" xmlns="http://www.w3.org/2000/svg" xmlns:xlink="http://www.w3.org/1999/xlink">
    <g id="Page-1" stroke="none" stroke-width="1" fill="none" fill-rule="evenodd">
        <g id="Contact_us" transform="translate(-734.000000, -215.000000)" fill="#3A00FF">
            <g id="Address" transform="translate(734.000000, 213.000000)">
                <path d="M0.0346604864,10.1935791 C0.533697695,5.74659939 4.22657304,2.2092292 8.71790792,2.00709376 C13.8080874,1.80495832 18,5.94873483 18,11.1031885 C17.9001926,16.35871 13.3090502,21.5131637 9.51636745,24.8483984 C9.21694513,25.0505339 8.81771536,25.0505339 8.51829303,24.8483984 C4.52599536,21.3110282 -0.464376722,15.7523036 0.0346604864,10.1935791 Z M9.01733024,7.66688606 C7.12098885,7.66688606 5.52406978,9.28396958 5.52406978,11.2042563 C5.52406978,13.2256106 7.12098885,14.8426942 9.01733024,14.8426942 C11.0134791,14.8426942 12.6103981,13.2256106 12.6103981,11.2042563 C12.6103981,9.28396958 11.0134791,7.66688606 9.01733024,7.66688606 Z" id="Shape"></path>
            </g>
        </g>
    </g>
</svg>