<?xml version="1.0" encoding="utf-8"?>
<svg width="26px" height="25px" viewBox="0 0 26 25" version="1.1" xmlns="http://www.w3.org/2000/svg" xmlns:xlink="http://www.w3.org/1999/xlink">
    <g id="Page-1" stroke="none" stroke-width="1" fill="none" fill-rule="evenodd">
        <g id="Contact_us" transform="translate(-1054.000000, -215.000000)" fill="#3A00FF" fill-rule="nonzero">
            <g id="General" transform="translate(1054.000000, 213.000000)">
                <g id="headset-solid" transform="translate(0.000000, 2.000000)">
                    <path d="M10.2678571,10.15625 C10.2678571,9.29345703 9.56815011,8.59375 8.70535714,8.59375 L7.92410714,8.59375 C6.19803292,8.59375 4.79910714,9.99267578 4.79910714,11.71875 L4.79910714,14.0625 C4.79910714,15.7885742 6.19803292,17.1875 7.92410714,17.1875 L8.70535714,17.1875 C9.56815011,17.1875 10.2678571,16.487793 10.2678571,15.625 L10.2678571,10.15625 Z M18.8616071,17.1875 C20.5876814,17.1875 21.9866071,15.7885742 21.9866071,14.0625 L21.9866071,11.71875 C21.9866071,9.99267578 20.5876814,8.59375 18.8616071,8.59375 L18.0803571,8.59375 C17.2175642,8.59375 16.5178571,9.29345703 16.5178571,10.15625 L16.5178571,15.625 C16.5178571,16.487793 17.2175642,17.1875 18.0803571,17.1875 L18.8616071,17.1875 Z M13.3928571,-1.77635684e-15 C6.41922433,-1.77635684e-15 1.11648996,5.80224609 0.892857143,12.5 L0.892857143,13.28125 C0.892857143,13.7128906 1.24246652,14.0625 1.67410714,14.0625 L2.45535714,14.0625 C2.88699777,14.0625 3.23660714,13.7128906 3.23660714,13.28125 L3.23660714,12.5 C3.23660714,6.89990234 7.79275949,2.34375 13.3928571,2.34375 C18.9929548,2.34375 23.5491071,6.89990234 23.5491071,12.5 L23.5432478,12.5 C23.547154,12.6186523 23.5491071,20.5917969 23.5491071,20.5917969 C23.5491071,21.7319336 22.6247907,22.65625 21.484654,22.65625 L16.5178571,22.65625 C16.5178571,21.3618164 15.4685407,20.3125 14.1741071,20.3125 L12.6116071,20.3125 C11.3171735,20.3125 10.2678571,21.3618164 10.2678571,22.65625 C10.2678571,23.9506836 11.3171735,25 12.6116071,25 L21.484654,25 C23.9192243,25 25.8928571,23.0263672 25.8928571,20.5917969 L25.8928571,12.5 C25.6692243,5.80224609 20.36649,-1.77635684e-15 13.3928571,-1.77635684e-15 Z" id="Shape"></path>
                </g>
            </g>
        </g>
    </g>
</svg>