<?xml version="1.0" encoding="UTF-8"?>
<svg width="544px" height="457px" viewBox="0 0 544 457" version="1.1" xmlns="http://www.w3.org/2000/svg" xmlns:xlink="http://www.w3.org/1999/xlink">
    <!-- Generator: Sketch 59.1 (86144) - https://sketch.com -->
    <title>Path</title>
    <desc>Created with Sketch.</desc>
    <defs>
        <linearGradient x1="50%" y1="0%" x2="50%" y2="100%" id="linearGradient-1">
            <stop stop-color="#FFFFFF" stop-opacity="0" offset="0%"></stop>
            <stop stop-color="#FFFFFF" stop-opacity="0.264969406" offset="100%"></stop>
        </linearGradient>
    </defs>
    <g id="Page-1" stroke="none" stroke-width="1" fill="none" fill-rule="evenodd">
        <g id="TeamManagement__UI" transform="translate(-297.000000, -739.000000)" fill="url(#linearGradient-1)" fill-rule="nonzero">
            <g id="AccountActivity" transform="translate(81.000000, 739.000000)">
                <g id="Path-Copy">
                    <path d="M596.8,19.1668734 L516.382609,-61.2997553 C500.772174,-76.919748 475.227826,-76.919748 459.617391,-61.181422 L379.2,19.2852066 L216,182.58513 C216.118261,204.713452 234.093913,222.581777 256.208696,222.581777 L386.532174,222.581777 L386.532174,416.766686 C386.532174,439.013342 404.507826,457 426.74087,457 L549.495652,457 C571.728696,457 589.704348,439.013342 589.704348,416.766686 L589.704348,222.463444 L719.791304,222.463444 C741.906087,222.463444 759.881739,204.595119 760,182.466796 L596.8,19.1668734 Z" id="Path"></path>
                </g>
            </g>
        </g>
    </g>
</svg>