<?xml version="1.0" encoding="utf-8"?>
<svg width="18px" height="18px" viewBox="0 0 18 18" version="1.1" xmlns="http://www.w3.org/2000/svg" xmlns:xlink="http://www.w3.org/1999/xlink">
    <g id="Page-1" stroke="none" stroke-width="1" fill="none" fill-rule="evenodd">
        <g id="Contact_us" transform="translate(-188.000000, -333.000000)" fill="#9CA8B7" fill-rule="nonzero">
            <g id="Contact_Us" transform="translate(164.000000, 141.000000)">
                <g id="Input" transform="translate(0.000000, 171.000000)">
                    <g id="noun_profile_1801248" transform="translate(24.000000, 21.000000)">
                        <path d="M11.8636364,6.13636364 C11.8636364,7.73181818 10.5954545,9 9,9 C7.40454545,9 6.13636364,7.73181818 6.13636364,6.13636364 C6.13636364,4.54090909 7.40454545,3.27272727 9,3.27272727 C10.5954545,3.27272727 11.8636364,4.54090909 11.8636364,6.13636364 Z M2.61818182,12.6818182 C2.00454545,11.5772727 1.63636364,10.35 1.63636364,9 C1.63636364,4.95 4.95,1.63636364 9,1.63636364 C13.05,1.63636364 16.3636364,4.95 16.3636364,9 C16.3636364,10.35 15.9954545,11.6181818 15.3818182,12.6818182 C15.7090909,13.2954545 15.9136364,13.9090909 16.0363636,14.6045455 C17.2636364,13.0909091 18,11.1272727 18,9 C18,4.00909091 13.9909091,0 9,0 C4.00909091,0 0,4.00909091 0,9 C0,11.1272727 0.736363636,13.0909091 1.96363636,14.6045455 C2.08636364,13.95 2.33181818,13.2954545 2.61818182,12.6818182 Z M9,18 C11.1681818,18 13.1727273,17.2227273 14.7272727,15.9545455 C14.7272727,12.8045455 12.15,10.2272727 9,10.2272727 C5.85,10.2272727 3.27272727,12.8045455 3.27272727,15.9545455 C4.82727273,17.2227273 6.83181818,18 9,18 Z" id="Shape"></path>
                    </g>
                </g>
            </g>
        </g>
    </g>
</svg>